<svg width="22" height="22" viewBox="0 0 22 22" fill="none" xmlns="http://www.w3.org/2000/svg">
<path d="M7.5625 2.75C4.90463 2.75 2.75 4.90463 2.75 7.5625V14.4375C2.75 17.0954 4.90463 19.25 7.5625 19.25H14.4375C17.0954 19.25 19.25 17.0954 19.25 14.4375V11C19.25 10.6203 19.5578 10.3125 19.9375 10.3125C20.3172 10.3125 20.625 10.6203 20.625 11V14.4375C20.625 17.8548 17.8548 20.625 14.4375 20.625H7.5625C4.14524 20.625 1.375 17.8548 1.375 14.4375V7.5625C1.375 4.14524 4.14524 1.375 7.5625 1.375H11C11.3797 1.375 11.6875 1.6828 11.6875 2.0625C11.6875 2.4422 11.3797 2.75 11 2.75H7.5625Z" fill="#3E4957"/>
<path d="M22 4.125C22 6.40317 20.1532 8.25 17.875 8.25C15.5968 8.25 13.75 6.40317 13.75 4.125C13.75 1.84683 15.5968 0 17.875 0C20.1532 0 22 1.84683 22 4.125Z" fill="#3E4957"/>
</svg>
