<?xml version="1.0" encoding="UTF-8"?>
<svg id="Layer_1" data-name="Layer 1" xmlns="http://www.w3.org/2000/svg" viewBox="0 0 315 535">
  <defs>
    <style>
      .cls-1 {
        fill: #3e4957;
      }

      .cls-1, .cls-2, .cls-3 {
        stroke-width: 0px;
      }

      .cls-2 {
        fill: #9b27af;
      }

      .cls-3 {
        fill: #fff;
      }
    </style>
  </defs>
  <path class="cls-1" d="m140.3,468.29l-37.84-1.22-1.24,30.13,37.68,2.74,1.39-31.66h0Zm-35.81.96l33.6,1.08-1.2,27.35-33.47-2.43,1.07-25.99Z"/>
  <path class="cls-1" d="m251.91,496.63l-10.37-36.63-34.74-.92,8.75,41.08,36.37-3.53h0Zm-11.98-34.56l9.26,32.7-31.96,3.1-7.8-36.61,30.5.81h0Z"/>
  <path class="cls-3" d="m150.56,55.2c.26,5.64.53,11.28.79,16.91-1.08,1.39-3.29,3.76-6.79,4.74-3.85,1.07-9.16.43-9.91-1.88-.31-.96.22-2.03.81-2.86-.21-4.03-.42-8.06-.63-12.09,5.24-1.61,10.48-3.21,15.73-4.81Z"/>
  <path class="cls-1" d="m140.63,78.34c1.47,0,2.94-.2,4.2-.54,3.54-.99,5.92-3.31,7.3-5.08l.22-.29-.87-18.54-17.68,5.41.65,12.53c-.82,1.27-1.07,2.42-.74,3.44.71,2.18,3.78,3.07,6.92,3.07h0Zm9.72-6.56c-1.22,1.5-3.21,3.32-6.05,4.11-3.85,1.07-8.24.2-8.71-1.24-.15-.46.09-1.16.68-1.99l.2-.28-.61-11.66,13.77-4.22.71,15.27Z"/>
  <path class="cls-3" d="m117.96,36.83c.6,8.54,1.3,18.36,8.62,24.11,1,.78,3.66,2.82,7.54,3.45,7.79,1.25,16.29-3.86,21.98-12.92,1.46-.51,3.26-1.38,4.74-3.02,5.86-6.46,2.52-20.06-3.45-27.12-7.65-9.06-22.96-11.37-37.71-5.17-2.04,8.61-2.07,15.79-1.72,20.67Z"/>
  <path class="cls-1" d="m156.75,52.28c1.95-.72,3.57-1.78,4.82-3.17,2.89-3.19,3.94-8.22,2.95-14.16-.87-5.23-3.26-10.57-6.38-14.26-7.99-9.46-23.96-11.7-38.84-5.44l-.46.19-.11.49c-1.65,6.97-2.24,14.02-1.75,20.96.62,8.81,1.32,18.8,8.99,24.82.94.73,3.78,2.96,8,3.64.85.13,1.7.2,2.55.2,7.32,0,14.86-4.89,20.23-13.28h0Zm-38.79-15.45l.98-.07c-.46-6.58.07-13.27,1.58-19.88,13.96-5.69,28.75-3.63,36.11,5.09,5.87,6.96,8.73,20.03,3.47,25.83-1.1,1.21-2.56,2.13-4.33,2.74l-.33.11-.19.29c-5.49,8.74-13.73,13.64-20.99,12.47-3.71-.6-6.25-2.59-7.09-3.25-6.98-5.48-7.65-15-8.24-23.41l-.98.07h0Z"/>
  <path class="cls-1" d="m128.68,1.32c2.05-.6,4.48-.64,7.37.24,7.04-2.09,12.35-1.69,15.68-1.07,30.94,5.79,23.82,55.41,64.17,89.19,6.34,5.31,19.21,14.7,21.62,30.19,1.29,8.3-.94,14.94-1.72,17.18-6.27,18-28.01,33.78-44.23,30.19-26.65-5.89-34.96-63.33-38.57-88.61-1.19-8.36-1.77-15.46-2.08-20.65.42-3.17,1.58-7.2,4.81-10.07.22-.19.43-.37.66-.55.6-.4,1.11-.51,1.78-.96,2.91-1.93,4.56-7.24,2.52-9.59-.84-.97-2.36-1.46-3.67-1.23-2.24.4-2.62,2.71-4,2.74-1.97.04-1.86-4.55-5.12-7.48-3.65-3.28-7.53-.88-15.36-4.33-1.92-.85-3.4-1.75-4.33-2.36-1.89.67-5.27,2.22-7.62,5.64-3.22,4.68-2.44,9.89-1.72,14.73.78,5.18,1.75,12.46,7.73,16.42,2.84,1.88,5.8,2.35,7.7,2.47.4,2.9.79,5.79,1.19,8.69-.76.56-2.55,2.05-3.56,4.69-1,2.59-.7,4.85-.52,5.78-3.34-2.81-8.35-7.69-12.29-14.97-13.51-24.98-5.15-61.98,9.58-66.27h0Z"/>
  <path class="cls-1" d="m137.55,41.42c-.15-1.53.36-2.83,1.14-2.91.77-.07,1.52,1.11,1.67,2.64.15,1.53-.36,2.83-1.14,2.91-.77.07-1.52-1.11-1.67-2.64Z"/>
  <path class="cls-3" d="m158.88,476.03h-89.27c6.49-89.61,12.98-179.22,19.46-268.83,19.66,2.81,39.32,5.61,58.98,8.42,3.61,86.8,7.22,173.61,10.83,260.41Z"/>
  <path class="cls-1" d="m68.55,477.02h91.36l-10.91-262.26-60.84-8.68-19.62,270.94h0Zm89.3-1.97h-87.18l19.31-266.72,57.12,8.15,10.75,258.56Z"/>
  <path class="cls-3" d="m279.04,476.03c-30-.23-59.99-.45-89.99-.68-20.35-87.69-40.7-175.39-61.05-263.08,20.31-4.65,40.62-9.3,60.92-13.95,30.04,92.57,60.08,185.15,90.12,277.72Z"/>
  <path class="cls-1" d="m280.4,477.03l-90.82-279.87-62.77,14.37,61.45,264.81,92.14.7h0Zm-92.14-277.55l89.42,275.55-87.84-.67-60.65-261.36,59.08-13.52Z"/>
  <path class="cls-1" d="m122.22,42.29c-.15-1.53.36-2.83,1.14-2.91.78-.07,1.52,1.11,1.67,2.64.15,1.53-.36,2.83-1.14,2.91-.78.07-1.52-1.11-1.67-2.64Z"/>
  <path class="cls-1" d="m134.23,64.28c1.75.2,4.16.25,6.9-.43,6.43-1.59,10.14-6.08,11.39-7.76-.43,1.77-2.34,8.82-9.15,13.1-3.38,2.12-6.68,2.76-8.71,2.97-.14-2.63-.28-5.26-.43-7.89h0Z"/>
  <path class="cls-1" d="m157.18,39.42c.02.94.94,1.16,1.17,2.05.48,1.84-2.68,3.96-2.61,4.04.08.09,4.21-2.05,4.21-5.15,0-1.21-.63-2.71-1.38-2.76-.63-.04-1.41.94-1.39,1.83Z"/>
  <path class="cls-1" d="m128.83,47.45c-.65,1.2-1.65,2.59-1.1,3.32.83,1.12,4.68-.15,4.64-.48-.03-.26-2.41.33-3.18-.73-.73-1,.55-2.65,1.32-4.54,2.07-5.14-.28-10.57-.56-10.55-.31.03,2.16,6.95-1.11,12.99Z"/>
  <path class="cls-1" d="m127.89,54.88c-.25.81,4.02,4.48,7.64,2.94,2.71-1.14,3.93-4.7,3.22-5.4-.68-.68-2.86,1.66-7.53,2.18-2.17.24-3.22-.1-3.33.27Z"/>
  <path class="cls-3" d="m134.97,34.53c.4-.31,1.72-1.28,3.66-1.29,1.77-.01,3.02.77,3.45,1.08"/>
  <path class="cls-1" d="m134.97,34.96c-.13,0-.25-.06-.34-.16-.15-.19-.11-.46.07-.6.65-.51,2.02-1.37,3.93-1.39h.04c1.75,0,3.04.72,3.66,1.16.19.13.24.41.11.6-.14.19-.41.24-.6.11-.54-.37-1.65-1-3.16-1h-.03c-1.65.01-2.84.75-3.4,1.2-.08.06-.17.09-.27.09h0Z"/>
  <path class="cls-3" d="m126.75,34.43c-.38-.24-1.62-.96-3.32-.8-1.55.15-2.57.95-2.92,1.26"/>
  <path class="cls-1" d="m120.51,35.31c-.12,0-.24-.05-.33-.15-.15-.18-.13-.45.04-.61.51-.44,1.6-1.2,3.16-1.36,1.69-.17,2.97.47,3.59.86.2.13.26.39.13.6-.13.2-.4.26-.6.13-.53-.33-1.62-.87-3.05-.73-1.32.13-2.24.78-2.67,1.15-.08.07-.18.11-.28.11h0Z"/>
  <path class="cls-2" d="m152.08,71.42c1.83.97,5.54,3.04,9.87,6.13,0,0,30.07,21.36,39.21,67.87.77,3.95,1.5,9.24-.71,14.98-2.15,5.58-6.11,9.11-8.65,10.98,3.53,13.11,7.06,26.22,10.59,39.34-17.74,4.16-40.52,7.79-67.07,7.85-20.93.06-39.35-2.11-54.54-4.91.03-8.95.62-19.01,2.21-29.95.95-6.52,2.14-12.6,3.47-18.23-8.69,5.39-15.73,6.03-19.68,5.96-14.46-.26-25.19-10.72-40.05-25.28-7.13-6.99-12.41-13.24-15.71-17.37,1.71-2.86,3.43-5.71,5.14-8.57,3.36-5.6,6.72-11.2,10.08-16.8,10.44,8.17,20.87,16.34,31.31,24.52,14.4-10.88,25.34-20.26,32.8-26.95,9.94-8.92,18.43-17.29,33.17-24.3,4.56-2.17,8.48-3.62,11.14-4.51-.74,1.57-.62,2.58-.36,3.2,1.2,2.82,7.62,3.37,12.12,1.31,3.14-1.44,4.88-3.93,5.66-5.26h0Z"/>
  <path class="cls-1" d="m182.46,174c6.13,0,10.62-1.35,13.97-4.56,12.04-11.5,3.31-38.84-2.96-54.11-5.02-12.23-12.48-23.35-22.16-33.05-.38-.39-1.01-.39-1.4,0-.39.39-.39,1.01,0,1.4,9.49,9.51,16.8,20.42,21.73,32.41,1.34,3.25,5.4,13.14,7.52,23.92,2.65,13.46,1.27,22.89-4.1,28.02-2.95,2.82-7.03,4.02-12.64,4.02-9.22,0-22.59-3.25-41.96-7.95-12.63-3.07-25.18-6.88-37.32-11.33.02-4.46.34-8.94.96-13.35.9-6.39,2.43-12.71,4.56-18.83l46.71,12.87c.53.15,1.07-.16,1.21-.69.15-.53-.16-1.07-.69-1.22l-48.48-13.36-.31.86c-2.33,6.5-4,13.26-4.96,20.08-.66,4.72-1,9.53-.98,14.31v.69l.64.24c12.42,4.59,25.26,8.5,38.18,11.63,19.4,4.71,32.92,8,42.47,8h0Z"/>
  <path class="cls-3" d="m140.06,524.76H42.11c.02-.77.09-1.99.42-3.41,2.23-9.62,12.23-12.26,30.04-20.49,20.93-9.67,28.25-15.79,35.54-11.22,3.36,2.11,3.08,4.26,6.77,5.86,9.54,4.14,17.59-6.82,22.85-3.9,3.28,1.82,5.72,9.2,2.33,33.18h0Z"/>
  <path class="cls-1" d="m141.31,524.93c3.86-27.28.15-32.73-2.97-34.46-2.9-1.61-6.17.01-9.65,1.73-3.99,1.97-8.52,4.2-13.31,2.12-1.73-.75-2.4-1.59-3.25-2.64-.77-.96-1.65-2.05-3.35-3.12-6.21-3.89-12.23-.89-24.25,5.1-3.59,1.79-7.66,3.82-12.5,6.05-3.03,1.4-5.89,2.67-8.42,3.78-12.68,5.6-20.33,8.98-22.32,17.57-.28,1.19-.43,2.42-.45,3.67l-.03,1.29h100.34l.15-1.09h0Zm-97.54-3.31c1.7-7.36,8.51-10.37,20.88-15.83,2.54-1.12,5.41-2.39,8.46-3.8,4.87-2.25,8.96-4.29,12.57-6.08,11.51-5.73,16.77-8.35,21.77-5.21,1.34.85,2.01,1.68,2.72,2.56.94,1.17,1.92,2.38,4.22,3.38,5.87,2.55,11.18-.07,15.44-2.18,2.98-1.47,5.55-2.74,7.29-1.78,2.11,1.17,5.13,6.75,1.84,30.8H43.46c.07-.63.17-1.25.31-1.86h0Z"/>
  <path class="cls-2" d="m111.87,508.97l-4.25-2.38-7.57,18,4.25,2.38,7.57-18Z"/>
  <path class="cls-2" d="m122.28,506.81l-4.25-2.38-9.1,21.62,4.25,2.38,9.09-21.62Z"/>
  <path class="cls-1" d="m139.08,535H41.19c-2.76,0-5-2.24-5-4.99v-1.72c0-2.76,2.24-4.99,5-4.99h97.89c2.76,0,5,2.23,5,4.99v1.72c0,2.76-2.24,4.99-5,4.99Z"/>
  <path class="cls-1" d="m88.28,510.73l-1.8-.26.9.13-.9-.13c.05-.33,1.02-8.06-7.41-10.71l.55-1.73c9.93,3.12,8.68,12.61,8.67,12.7Z"/>
  <path class="cls-1" d="m77.28,514.15l-1.8-.26.9.13-.9-.13c.05-.33,1.02-8.06-7.41-10.71l.55-1.73c9.93,3.12,8.68,12.61,8.67,12.7Z"/>
  <path class="cls-1" d="m125.95,524.3l-1.82-.08c0-.2,1-20.02,17.15-24.15l.45,1.76c-14.86,3.8-15.78,22.28-15.79,22.46h0Z"/>
  <path class="cls-1" d="m17.87,127.83l18.77,1.92c2.92.3,5.19-2.49,4.31-5.29l-14.2-44.74c-.49-1.55-1.86-2.66-3.48-2.83l-18.77-1.92c-2.92-.3-5.19,2.49-4.31,5.29l14.2,44.74c.49,1.55,1.86,2.66,3.48,2.83Z"/>
  <path class="cls-3" d="m211.13,524.76h97.94c-.02-.77-.1-1.99-.42-3.41-2.23-9.62-12.23-12.26-30.04-20.49-20.93-9.67-28.25-15.79-35.54-11.22-3.36,2.11-3.08,4.26-6.77,5.86-9.54,4.14-17.59-6.82-22.85-3.9-3.28,1.82-5.72,9.2-2.33,33.18h0Z"/>
  <path class="cls-1" d="m310.35,524.73c-.03-1.25-.18-2.49-.45-3.67-1.99-8.59-9.64-11.97-22.32-17.57-2.53-1.12-5.39-2.38-8.42-3.78-4.84-2.23-8.91-4.26-12.5-6.05-12.01-5.98-18.04-8.99-24.25-5.1-1.71,1.07-2.58,2.16-3.35,3.12-.85,1.06-1.52,1.89-3.25,2.64-4.8,2.08-9.32-.15-13.31-2.12-3.47-1.71-6.75-3.33-9.65-1.73-3.12,1.73-6.83,7.19-2.97,34.46l.15,1.09h100.34l-.03-1.29h0Zm-96.27-32.04c1.73-.96,4.31.31,7.29,1.78,4.26,2.1,9.57,4.72,15.44,2.18,2.3-1,3.27-2.21,4.22-3.38.71-.88,1.38-1.72,2.72-2.56,5-3.13,10.26-.52,21.77,5.21,3.61,1.8,7.7,3.83,12.57,6.08,3.05,1.41,5.92,2.68,8.46,3.8,12.36,5.46,19.17,8.47,20.88,15.83.14.61.24,1.23.31,1.86h-95.49c-3.29-24.05-.28-29.63,1.84-30.8h0Z"/>
  <path class="cls-2" d="m239.32,508.97l4.25-2.38,7.57,18-4.26,2.38-7.57-18Z"/>
  <path class="cls-2" d="m228.9,506.81l4.25-2.38,9.09,21.62-4.25,2.38-9.1-21.62Z"/>
  <path class="cls-1" d="m212.11,523.29h97.89c2.76,0,5,2.23,5,4.99v1.72c0,2.76-2.24,4.99-5,4.99h-97.89c-2.76,0-5-2.23-5-4.99v-1.72c0-2.76,2.24-4.99,5-4.99Z"/>
  <path class="cls-1" d="m262.91,510.73c-.01-.1-1.26-9.58,8.67-12.7l.55,1.73c-8.43,2.65-7.46,10.39-7.41,10.71l-1.8.26Z"/>
  <path class="cls-1" d="m273.91,514.15c-.01-.09-1.26-9.58,8.67-12.7l.55,1.73c-8.43,2.65-7.46,10.39-7.41,10.71l-1.8.26Z"/>
  <path class="cls-1" d="m225.24,524.31c0-.19-.96-18.67-15.79-22.47l.45-1.76c16.15,4.13,17.14,23.95,17.15,24.15l-1.82.07Z"/>
  <path class="cls-3" d="m5.22,98.84c-.17,3.55-.02,8.73,1.61,14.7,1.53,5.58,3.82,9.89,5.66,12.79,2.13-4.33,4.26-8.65,6.39-12.98,1.55-4.56.23-9.53-3.26-12.46-4.4-3.69-9.94-2.19-10.4-2.06h0Z"/>
  <path class="cls-1" d="m12.6,128.34l7.21-14.68c1.67-4.91.24-10.34-3.56-13.53-4.76-3.99-10.65-2.44-11.31-2.25l-.68.2-.04.71c-.24,5.07.31,10.12,1.65,15.01,1.26,4.62,3.21,9.01,5.78,13.06l.94,1.49Zm5.36-15.37l-5.56,11.31c-2.01-3.45-3.56-7.15-4.61-11-1.22-4.45-1.76-9.04-1.61-13.65,1.58-.3,5.57-.69,8.81,2.02,3.16,2.65,4.35,7.19,2.98,11.32h0Z"/>
  <path class="cls-3" d="m102.31,144.32c.35-2.76.81-5.67,1.4-8.69.9-4.59,1.98-8.83,3.13-12.68-5.94-.86-9.58-2.99-11.85-4.88,0,0-6.57-5.48-10.35-6.54-2.3-.65-2.33-.14-6.75-.66-8.03-.96-11.73-3.07-12.41-1.96-.65,1.06,2.1,3.92,3.85,5.34,3.09,2.51,6.41,3.26,8.21,3.52-.19.17-1.68,1.59-1.45,3.61.11.98.59,1.68.86,2.03-.19.12-1.94,1.3-2.07,3.51-.15,2.49,1.9,3.93,2,3.99-.61.84-1.34,2.13-.99,3.36.77,2.71,6.22,2.91,12.14,4.33,3.66.88,8.62,2.5,14.28,5.72h0Z"/>
  <path class="cls-1" d="m103.1,145.91l.18-1.46c.37-2.88.83-5.78,1.39-8.63.82-4.22,1.87-8.46,3.1-12.59l.33-1.09-1.13-.17c-4.64-.67-8.46-2.25-11.36-4.66-.28-.23-6.77-5.62-10.72-6.73-1.36-.38-2.03-.39-3.03-.42-.79-.01-1.88-.04-3.87-.28-3.78-.45-6.55-1.15-8.57-1.66-2.62-.67-4.06-1.03-4.8.17-1.29,2.11,3.16,5.89,4.06,6.62,2.01,1.64,4.43,2.81,7.07,3.42-.44.77-.8,1.82-.66,3.05.07.59.25,1.17.53,1.71-.72.68-1.64,1.9-1.75,3.66-.12,2.02.93,3.46,1.69,4.23-.73,1.25-.94,2.4-.64,3.45.75,2.62,4.22,3.29,8.63,4.14,1.37.26,2.78.54,4.23.88,4.77,1.15,9.48,3.04,14.02,5.62l1.28.73h0Zm2.47-22.16c-1.12,3.85-2.07,7.77-2.84,11.7-.47,2.41-.88,4.87-1.22,7.32-4.3-2.32-8.75-4.03-13.26-5.12-1.5-.36-2.93-.63-4.32-.9-3.59-.69-6.68-1.29-7.1-2.74-.18-.64.11-1.5.84-2.51l.6-.83-.84-.57c-.07-.05-1.68-1.18-1.57-3.12.1-1.71,1.47-2.64,1.62-2.74l.91-.59-.68-.85c-.25-.32-.57-.84-.65-1.53-.18-1.52,1-2.65,1.13-2.77l1.53-1.41-2.06-.3c-2.92-.42-5.59-1.56-7.73-3.3-1.72-1.4-3.16-3.1-3.5-3.9.54.05,1.53.3,2.5.55,2.07.53,4.92,1.25,8.82,1.71,2.09.25,3.23.27,4.06.29.94.02,1.42.03,2.54.34,3.54.99,9.92,6.29,9.98,6.35,2.94,2.46,6.71,4.11,11.22,4.92h0Z"/>
  <path class="cls-1" d="m83.21,183.18c.5,0,.92-.38.98-.88,1.17-10.78,3.01-21.57,5.49-32.08.56-2.39,1.17-4.8,1.79-7.17.14-.53-.17-1.07-.7-1.21-.53-.14-1.07.17-1.21.7-.63,2.39-1.24,4.82-1.81,7.23-2.49,10.58-4.35,21.46-5.53,32.32-.06.54.33,1.03.88,1.08.04,0,.07,0,.11,0h0Z"/>
  <path class="cls-1" d="m61,145.19c.46,0,.87-.32.96-.79.6-2.88.62-5.8.04-8.68-.6-2.99-1.86-5.88-3.65-8.37-.32-.44-.94-.54-1.38-.22-.44.32-.54.93-.23,1.38,1.62,2.26,2.77,4.89,3.31,7.6.53,2.62.51,5.27-.04,7.89-.11.53.23,1.06.77,1.17.07.02.13.02.2.02h0Z"/>
  <path class="cls-3" d="m17.67,89.8l5.33.72c1.02.14,1.81-.88,1.43-1.83l-1.98-4.91c-.18-.45-.59-.76-1.07-.83l-5.33-.72c-1.02-.14-1.81.88-1.43,1.83l1.98,4.91c.18.45.59.76,1.07.83Z"/>
  <path class="cls-1" d="m194.53,455.2h66.53c.55,0,.99-.44.99-.99s-.44-.99-.99-.99h-66.53c-.54,0-.99.44-.99.99s.44.99.99.99Z"/>
  <path class="cls-1" d="m79.02,455.2h66.53c.54,0,.99-.44.99-.99s-.44-.99-.99-.99h-66.53c-.55,0-.99.44-.99.99s.44.99.99.99Z"/>
  <path class="cls-3" d="m158.88,100.89c2.75,0,5-2.24,5-4.99s-2.24-4.99-5-4.99-5,2.24-5,4.99,2.24,4.99,5,4.99Zm0-8.01c1.67,0,3.02,1.35,3.02,3.02s-1.36,3.02-3.02,3.02-3.02-1.35-3.02-3.02,1.35-3.02,3.02-3.02Z"/>
  <path class="cls-3" d="m106.17,109.57c2.75,0,5-2.24,5-4.99s-2.24-4.99-5-4.99-5,2.24-5,4.99,2.24,4.99,5,4.99Zm0-8.01c1.67,0,3.02,1.35,3.02,3.02s-1.36,3.02-3.02,3.02-3.02-1.35-3.02-3.02,1.36-3.02,3.02-3.02Z"/>
  <path class="cls-3" d="m136.32,118.48c1.57,0,2.85-1.28,2.85-2.85s-1.28-2.85-2.85-2.85-2.85,1.28-2.85,2.85,1.28,2.85,2.85,2.85Zm0-4.51c.92,0,1.67.75,1.67,1.67s-.75,1.67-1.67,1.67-1.67-.75-1.67-1.67.75-1.67,1.67-1.67Z"/>
  <path class="cls-3" d="m180.03,129.3c1.57,0,2.85-1.28,2.85-2.85s-1.28-2.85-2.85-2.85-2.85,1.28-2.85,2.85,1.28,2.85,2.85,2.85Zm0-4.51c.92,0,1.67.75,1.67,1.67s-.75,1.67-1.67,1.67-1.67-.75-1.67-1.67.75-1.67,1.67-1.67Z"/>
  <path class="cls-3" d="m151.8,160.55c1.57,0,2.85-1.28,2.85-2.85s-1.28-2.85-2.85-2.85-2.85,1.28-2.85,2.85,1.28,2.85,2.85,2.85Zm0-4.51c.92,0,1.67.75,1.67,1.67s-.75,1.67-1.67,1.67-1.67-.75-1.67-1.67.75-1.67,1.67-1.67Z"/>
  <path class="cls-3" d="m122.65,136.66c1.57,0,2.85-1.28,2.85-2.85s-1.28-2.85-2.85-2.85-2.85,1.28-2.85,2.85,1.28,2.85,2.85,2.85Zm0-4.51c.92,0,1.67.75,1.67,1.67s-.75,1.66-1.67,1.66-1.67-.74-1.67-1.66.75-1.67,1.67-1.67Z"/>
  <path class="cls-3" d="m129.03,181.18c1.57,0,2.85-1.28,2.85-2.85s-1.28-2.85-2.85-2.85-2.85,1.28-2.85,2.85,1.28,2.85,2.85,2.85Zm0-4.51c.92,0,1.67.75,1.67,1.67s-.75,1.67-1.67,1.67-1.67-.75-1.67-1.67.75-1.67,1.67-1.67Z"/>
  <path class="cls-3" d="m105.5,205.23c1.57,0,2.85-1.28,2.85-2.85s-1.28-2.85-2.85-2.85-2.85,1.28-2.85,2.85,1.28,2.85,2.85,2.85Zm0-4.51c.92,0,1.67.75,1.67,1.66s-.75,1.67-1.67,1.67-1.67-.75-1.67-1.67.75-1.66,1.67-1.66Z"/>
  <path class="cls-3" d="m42.69,143.39c1.57,0,2.85-1.28,2.85-2.85s-1.28-2.85-2.85-2.85-2.85,1.28-2.85,2.85,1.28,2.85,2.85,2.85Zm0-4.51c.92,0,1.67.75,1.67,1.67s-.75,1.67-1.67,1.67-1.67-.75-1.67-1.67.75-1.67,1.67-1.67Z"/>
  <path class="cls-3" d="m180.03,160.56c2.75,0,5-2.24,5-4.99s-2.24-4.99-5-4.99-5,2.24-5,4.99,2.24,4.99,5,4.99Zm0-8.01c1.67,0,3.02,1.35,3.02,3.02s-1.35,3.02-3.02,3.02-3.02-1.35-3.02-3.02,1.35-3.02,3.02-3.02Z"/>
  <path class="cls-3" d="m94.11,174.01c2.75,0,5-2.24,5-4.99s-2.24-4.99-5-4.99-5,2.24-5,4.99,2.24,4.99,5,4.99Zm0-8.01c1.67,0,3.02,1.35,3.02,3.02s-1.35,3.02-3.02,3.02-3.02-1.35-3.02-3.02,1.35-3.02,3.02-3.02Z"/>
  <path class="cls-3" d="m166.9,205.11c2.75,0,5-2.24,5-4.99s-2.24-4.99-5-4.99-5,2.24-5,4.99,2.24,4.99,5,4.99Zm0-8.01c1.67,0,3.02,1.35,3.02,3.02s-1.35,3.02-3.02,3.02-3.02-1.35-3.02-3.02,1.35-3.02,3.02-3.02Z"/>
  <path class="cls-3" d="m58.52,162.69c2.75,0,5-2.24,5-4.99s-2.24-4.99-5-4.99-5,2.24-5,4.99,2.24,4.99,5,4.99Zm0-8.01c1.67,0,3.02,1.35,3.02,3.02s-1.35,3.02-3.02,3.02-3.02-1.35-3.02-3.02,1.35-3.02,3.02-3.02Z"/>
  <path class="cls-1" d="m134.89,219.98c22.72,0,45.45-2.79,67.73-8.32.53-.13.85-.67.72-1.2-.13-.53-.67-.85-1.2-.72-25.43,6.31-51.46,9.03-77.36,8.07-14.65-.54-29.39-2.26-43.82-5.14-.53-.1-1.05.24-1.16.77-.11.53.24,1.05.77,1.16,14.53,2.89,29.38,4.63,44.14,5.17,3.39.13,6.79.18,10.18.18h0Z"/>
</svg>