<svg width="39" height="38" viewBox="0 0 39 38" fill="none" xmlns="http://www.w3.org/2000/svg">
<path fill-rule="evenodd" clip-rule="evenodd" d="M12.375 27.3125C12.375 26.6567 12.9067 26.125 13.5625 26.125H34.9375C35.5933 26.125 36.125 26.6567 36.125 27.3125C36.125 27.9683 35.5933 28.5 34.9375 28.5H13.5625C12.9067 28.5 12.375 27.9683 12.375 27.3125Z" fill="#9B27AF"/>
<path fill-rule="evenodd" clip-rule="evenodd" d="M12.375 17.8125C12.375 17.1567 12.9067 16.625 13.5625 16.625H34.9375C35.5933 16.625 36.125 17.1567 36.125 17.8125C36.125 18.4683 35.5933 19 34.9375 19H13.5625C12.9067 19 12.375 18.4683 12.375 17.8125Z" fill="#9B27AF"/>
<path fill-rule="evenodd" clip-rule="evenodd" d="M12.375 8.3125C12.375 7.65666 12.9067 7.125 13.5625 7.125H34.9375C35.5933 7.125 36.125 7.65666 36.125 8.3125C36.125 8.96834 35.5933 9.5 34.9375 9.5H13.5625C12.9067 9.5 12.375 8.96834 12.375 8.3125Z" fill="#9B27AF"/>
<path fill-rule="evenodd" clip-rule="evenodd" d="M5.25 10.6875C6.56168 10.6875 7.625 9.62418 7.625 8.3125C7.625 7.00082 6.56168 5.9375 5.25 5.9375C3.93832 5.9375 2.875 7.00082 2.875 8.3125C2.875 9.62418 3.93832 10.6875 5.25 10.6875Z" fill="#9B27AF"/>
<path fill-rule="evenodd" clip-rule="evenodd" d="M5.25 20.1875C6.56168 20.1875 7.625 19.1242 7.625 17.8125C7.625 16.5008 6.56168 15.4375 5.25 15.4375C3.93832 15.4375 2.875 16.5008 2.875 17.8125C2.875 19.1242 3.93832 20.1875 5.25 20.1875Z" fill="#9B27AF"/>
<path fill-rule="evenodd" clip-rule="evenodd" d="M5.25 29.6875C6.56168 29.6875 7.625 28.6242 7.625 27.3125C7.625 26.0008 6.56168 24.9375 5.25 24.9375C3.93832 24.9375 2.875 26.0008 2.875 27.3125C2.875 28.6242 3.93832 29.6875 5.25 29.6875Z" fill="#9B27AF"/>
</svg>
